<?xml version="1.0" standalone="no"?><!DOCTYPE svg PUBLIC "-//W3C//DTD SVG 1.1//EN" "http://www.w3.org/Graphics/SVG/1.1/DTD/svg11.dtd"><svg t="1599027430234" class="icon" viewBox="0 0 1024 1024" version="1.1" xmlns="http://www.w3.org/2000/svg" p-id="2992" xmlns:xlink="http://www.w3.org/1999/xlink" width="200" height="200"><defs><style type="text/css"></style></defs><path d="M488.40192 655.24736a77.96224 77.96224 0 0 1-50.53952-18.432l-104.27904-88.35584A35.328 35.328 0 0 1 379.22816 494.592l104.27392 88.3456a7.74144 7.74144 0 0 0 10.80832-0.81408l179.93216-206.21312a35.328 35.328 0 0 1 53.20704 46.41792l-179.92192 206.208a78.25408 78.25408 0 0 1-59.12576 26.71104zM514.56 952.32a437.76 437.76 0 1 1 437.76-437.76 438.272 438.272 0 0 1-437.76 437.76z m0-804.91008a367.1552 367.1552 0 1 0 367.1552 367.15008 367.56992 367.56992 0 0 0-367.1552-367.15008z" fill="#2c2c2c" p-id="2993"></path></svg>